{"title":"Damned.By.Dawn.2009.DvDRip.H264.Feel-Free","uid":5935685,"size":620902157,"categoryP":"video","categoryS":"movies","magnet":"?xt=urn:btih:bccabba663133c39babb38a5e2b5cc6fa852c3ae&amp;dn=Damned.By.Dawn.2009.DvDRip.H264.Feel-Free&amp;tr=udp%3A%2F%2Ftracker.openbittorrent.com%3A80&amp;tr=udp%3A%2F%2Fopen.demonii.com%3A1337&amp;tr=udp%3A%2F%2Ftracker.coppersurfer.tk%3A6969&amp;tr=udp%3A%2F%2Fexodus.desync.com%3A6969","seeders":0,"leechers":1,"uploader":".BONE.","files":10,"time":1288937319,"description":"\nGenre:Horror\nLanguage:English\nIMDb:http://www.imdb.com/title/tt1442492/\nSource:DVD PAL\n\nGeneral\nComplete name :Damned.By.Dawn.2009.DvDRip.H264.Feel-Free\nFormat : MPEG-4\nFormat profile : Base Media\nCodec ID : isom\nFile size : 590 MiB\nDuration : 1h 24mn\nOverall bit rate : 977 Kbps\nVideo #2\nCodec ID : avc1\nCodec ID/Info : Advanced Video Coding\nDuration : 1h 24mn\nBit rate mode : Variable\nBit rate : 811 Kbps\nWidth : 720 pixels\nHeight : 384 pixels\nDisplay aspect ratio : 1.875\nFrame rate mode : Constant\nFrame rate : 23.976 fps\nOriginal frame rate : 23.000 fps\nResolution : 24 bits\nColorimetry : 4:2:0\nScan type : Progressive\nBits/(Pixel*Frame) : 0.122\nStream size : 490 MiB (83%)\nAudio #1\nID : 1\nFormat : AAC\nFormat/Info : Advanced Audio Codec\nFormat version : Version 4\nFormat profile : LC\nFormat settings, SBR : No\nCodec ID : 40\nDuration : 1h 24mn\nBit rate mode : Constant\nBit rate : 160 Kbps\nChannel(s) : 2 channels\nChannel positions : L R\nSampling rate : 48.0 KHz\nResolution : 16 bits\nStream size : 96.7 MiB (16%)\n\nPlot:\nDuring a violent thunderstorm, a family is awoken by piercing shrieks which summon the dead to rise again. Their lives explode in a blood soaked fury as they battle malevolent spirits, whilst fighting to save their souls from eternal torment with... the Banshee.\n\n\nTRAILER &lt;a href=&quot;\nhttp://www.youtube.com/watch?v=PHJLpiLy7pA&quot; rel=&quot;nofollow&quot; target=&quot;_NEW&quot;&gt;\nhttp://www.youtube.com/watch?v=PHJLpiLy7pA&lt;/a&gt;\n\n\nSCREENS &lt;a href=&quot;\nhttp://rapidhdd.com/images/157679vlcsnap-2010-11-05-06h43m00s195.png&quot; rel=&quot;nofollow&quot; target=&quot;_NEW&quot;&gt;\nhttp://rapidhdd.com/images/157679vlcsnap-2010-11-05-06h43m00s195.png&lt;/a&gt; &lt;a href=&quot;\nhttp://www.rapidhdd.com/images/262990vlcsnap-2010-11-05-06h45m04s160.png&quot; rel=&quot;nofollow&quot; target=&quot;_NEW&quot;&gt;\nhttp://www.rapidhdd.com/images/262990vlcsnap-2010-11-05-06h45m04s160.png&lt;/a&gt; &lt;a href=&quot;\nhttp://www.rapidhdd.com/images/303691vlcsnap-2010-11-05-06h44m36s130.png&quot; rel=&quot;nofollow&quot; target=&quot;_NEW&quot;&gt;\nhttp://www.rapidhdd.com/images/303691vlcsnap-2010-11-05-06h44m36s130.png&lt;/a&gt; &lt;a href=&quot;\nhttp://www.rapidhdd.com/images/148230vlcsnap-2010-11-05-06h46m13s82.png&quot; rel=&quot;nofollow&quot; target=&quot;_NEW&quot;&gt;\nhttp://www.rapidhdd.com/images/148230vlcsnap-2010-11-05-06h46m13s82.png&lt;/a&gt; &lt;a href=&quot;\nhttp://www.rapidhdd.com/images/577341vlcsnap-2010-11-05-06h52m41s126.png&quot; rel=&quot;nofollow&quot; target=&quot;_NEW&quot;&gt;\nhttp://www.rapidhdd.com/images/577341vlcsnap-2010-11-05-06h52m41s126.png&lt;/a&gt; &lt;a href=&quot;\nhttp://www.rapidhdd.com/images/646331vlcsnap-2010-11-05-06h54m59s223.png&quot; rel=&quot;nofollow&quot; target=&quot;_NEW&quot;&gt;\nhttp://www.rapidhdd.com/images/646331vlcsnap-2010-11-05-06h54m59s223.png&lt;/a&gt;\n\n\n","torrent":{"xt":"urn:btih:bccabba663133c39babb38a5e2b5cc6fa852c3ae","amp;dn":"Damned.By.Dawn.2009.DvDRip.H264.Feel-Free","amp;tr":["udp%3A%2F%2Ftracker.openbittorrent.com%3A80","udp%3A%2F%2Fopen.demonii.com%3A1337","udp%3A%2F%2Ftracker.coppersurfer.tk%3A6969","udp%3A%2F%2Fexodus.desync.com%3A6969"],"infoHash":"bccabba663133c39babb38a5e2b5cc6fa852c3ae","infoHashBuffer":{"type":"Buffer","data":[188,202,187,166,99,19,60,57,186,187,56,165,226,181,204,111,168,82,195,174]},"announce":[],"urlList":[]}}